<svg width="20" height="20" viewBox="0 0 20 20" fill="none" xmlns="http://www.w3.org/2000/svg">
<path d="M12.8 1.60001V4.80001M6.40002 1.60001V4.80001" stroke="#141B34" stroke-width="1.2" stroke-linecap="round" stroke-linejoin="round"/>
<path d="M10.4 3.20001H8.80002C5.78303 3.20001 4.27454 3.20001 3.33728 4.13727C2.40002 5.07453 2.40002 6.58302 2.40002 9.60001V11.2C2.40002 14.217 2.40002 15.7255 3.33728 16.6627C4.27454 17.6 5.78303 17.6 8.80002 17.6H10.4C13.417 17.6 14.9255 17.6 15.8627 16.6627C16.8 15.7255 16.8 14.217 16.8 11.2V9.60001C16.8 6.58302 16.8 5.07453 15.8627 4.13727C14.9255 3.20001 13.417 3.20001 10.4 3.20001Z" stroke="#141B34" stroke-width="1.2" stroke-linecap="round" stroke-linejoin="round"/>
<path d="M2.40002 8H16.8" stroke="#141B34" stroke-width="1.2" stroke-linecap="round" stroke-linejoin="round"/>
<path d="M7.19995 13.2C7.19995 13.2 8.39995 13.6 8.79995 14.8C8.79995 14.8 10.5412 11.6 12.8 10.8" stroke="#141B34" stroke-width="1.2" stroke-linecap="round" stroke-linejoin="round"/>
</svg>
