<svg width="22" height="22" viewBox="0 0 22 22" fill="none" xmlns="http://www.w3.org/2000/svg">
<path d="M3.66699 15.167H13.75C13.8835 15.167 13.972 15.2065 14.0498 15.2842C14.1275 15.3619 14.1673 15.4499 14.167 15.582C14.1667 15.7156 14.1264 15.8057 14.0478 15.8848C13.9714 15.9617 13.8841 16.0006 13.7519 16H3.66699C3.53347 16 3.4451 15.96 3.36816 15.8828C3.29031 15.8046 3.25031 15.7155 3.25 15.582C3.24971 15.4505 3.28911 15.363 3.36718 15.2852C3.4463 15.2063 3.53537 15.167 3.66699 15.167ZM17.9668 7.30664C18.1074 7.30666 18.1898 7.347 18.2549 7.41211C18.3199 7.47721 18.3603 7.55966 18.3603 7.7002C18.3603 7.84073 18.32 7.92318 18.2549 7.98828L15.2432 11L18.2549 14.0117C18.32 14.0768 18.3603 14.1593 18.3603 14.2998C18.3603 14.4403 18.3199 14.5228 18.2549 14.5879C18.1898 14.653 18.1074 14.6933 17.9668 14.6934C17.8261 14.6934 17.7438 14.653 17.6787 14.5879L14.3789 11.2881C14.283 11.1922 14.25 11.1032 14.25 11C14.25 10.8968 14.283 10.8078 14.3789 10.7119L17.6787 7.41211C17.7438 7.34699 17.8261 7.30664 17.9668 7.30664ZM3.66699 10.583H11C11.1335 10.583 11.222 10.6234 11.2998 10.7012C11.3775 10.7789 11.4173 10.8669 11.417 10.999C11.4166 11.1323 11.3762 11.2218 11.2978 11.3008C11.2214 11.3778 11.1342 11.4176 11.0019 11.417H3.66699C3.53349 11.417 3.44509 11.377 3.36816 11.2998C3.29026 11.2216 3.25035 11.1324 3.25 10.999C3.24969 10.8674 3.28906 10.779 3.36718 10.7012C3.44623 10.6225 3.53553 10.583 3.66699 10.583ZM3.66699 6H13.75C13.8834 6 13.9721 6.0396 14.0498 6.11719C14.1274 6.19482 14.1672 6.2831 14.167 6.41504C14.1667 6.54853 14.1263 6.63873 14.0478 6.71777C13.9714 6.79476 13.8842 6.83363 13.7519 6.83301H3.66699C3.53358 6.83301 3.44505 6.79387 3.36816 6.7168C3.29022 6.63859 3.25031 6.54854 3.25 6.41504C3.24978 6.28365 3.28915 6.19592 3.36718 6.11816C3.44627 6.0394 3.53544 6 3.66699 6Z" stroke="black"/>
</svg>
