<svg width="18" height="18" viewBox="0 0 18 18" fill="none" xmlns="http://www.w3.org/2000/svg">
<path d="M9.62473 17.8748C9.53291 17.8748 9.44201 17.8564 9.3574 17.8207C9.27279 17.7851 9.19618 17.7328 9.1321 17.667C9.06802 17.6013 9.01776 17.5233 8.98429 17.4378C8.95082 17.3523 8.93482 17.261 8.93723 17.1692V9.28659C8.93723 9.19542 8.90101 9.10798 8.83655 9.04352C8.77208 8.97905 8.68465 8.94284 8.59348 8.94284H0.704846C0.560247 8.94455 0.418658 8.90149 0.299496 8.81956C0.180334 8.73763 0.0894334 8.62085 0.0392602 8.48522C-0.0178776 8.32348 -0.0124865 8.14622 0.0543748 7.98825C0.121236 7.83028 0.244737 7.70301 0.400628 7.63143L16.9006 0.0624847C17.0281 0.00407591 17.1704 -0.0139568 17.3084 0.0108052C17.4464 0.0355671 17.5736 0.10194 17.6728 0.201021C17.772 0.300102 17.8386 0.427154 17.8635 0.565136C17.8885 0.703119 17.8706 0.845433 17.8124 0.972993L10.2499 17.473C10.1952 17.5928 10.1071 17.6944 9.99629 17.7656C9.88545 17.8369 9.75648 17.8747 9.62473 17.8748Z" fill="#E1332B"/>
</svg>
