<svg width="16" height="16" viewBox="0 0 16 16" fill="none" xmlns="http://www.w3.org/2000/svg">
<path d="M14.5117 1.16255C14.5062 1.13568 14.4931 1.11095 14.474 1.09125C14.4549 1.07156 14.4306 1.05772 14.4039 1.05135C12.6244 0.616282 8.5128 2.16667 6.2852 4.39337C5.88789 4.78747 5.52568 5.21545 5.20269 5.67245C4.51575 5.61168 3.82882 5.66242 3.24336 5.91763C1.59149 6.64467 1.11055 8.54172 0.976562 9.35777C0.968962 9.40244 0.971829 9.44826 0.984936 9.49163C0.998044 9.535 1.02103 9.57474 1.0521 9.60772C1.08317 9.6407 1.12146 9.66603 1.16397 9.6817C1.20648 9.69737 1.25205 9.70297 1.29709 9.69805L3.94974 9.40547C3.95163 9.60547 3.9637 9.80523 3.98589 10.004C3.99924 10.142 4.06051 10.271 4.15907 10.3686L5.18628 11.3934C5.28395 11.4918 5.41289 11.553 5.55087 11.5665C5.74852 11.5886 5.94717 11.6007 6.14605 11.6027L5.85499 14.252C5.85014 14.297 5.85578 14.3426 5.87147 14.385C5.88717 14.4275 5.91249 14.4658 5.94546 14.4968C5.97842 14.5279 6.01813 14.5509 6.06148 14.564C6.10482 14.5772 6.15061 14.5801 6.19527 14.5725C7.00981 14.4419 8.9102 13.9609 9.63299 12.3091C9.88819 11.7236 9.94045 11.04 9.88151 10.3564C10.3396 10.0334 10.7687 9.67111 11.1639 9.27362C13.3985 7.05027 14.9401 3.03043 14.5117 1.16255ZM8.9345 6.62127C8.73046 6.41736 8.59147 6.15751 8.53512 5.8746C8.47877 5.59168 8.5076 5.29841 8.61795 5.03188C8.7283 4.76535 8.91522 4.53753 9.15506 4.37724C9.3949 4.21696 9.67689 4.13141 9.96536 4.13141C10.2538 4.13141 10.5358 4.21696 10.7757 4.37724C11.0155 4.53753 11.2024 4.76535 11.3128 5.03188C11.4231 5.29841 11.452 5.59168 11.3956 5.8746C11.3393 6.15751 11.2003 6.41736 10.9962 6.62127C10.8609 6.75677 10.7002 6.86427 10.5233 6.93761C10.3465 7.01095 10.1569 7.0487 9.96536 7.0487C9.77388 7.0487 9.58427 7.01095 9.40738 6.93761C9.2305 6.86427 9.06981 6.75677 8.9345 6.62127Z" fill="#FF7F00"/>
<path d="M5.11636 12.1355C4.94987 12.3023 4.68281 12.3673 4.36137 12.4229C3.63919 12.546 3.00147 11.9219 3.1312 11.1918C3.18073 10.9151 3.32717 10.5271 3.41831 10.4359C3.43824 10.4164 3.4515 10.3911 3.45621 10.3636C3.46093 10.3361 3.45686 10.3078 3.44458 10.2827C3.4323 10.2577 3.41244 10.2371 3.38782 10.224C3.3632 10.2109 3.33507 10.2058 3.30742 10.2096C2.90357 10.259 2.52786 10.4421 2.2401 10.7297C1.52582 11.4446 1.45837 14.0973 1.45837 14.0973C1.45837 14.0973 4.11254 14.0298 4.82682 13.3149C5.11533 13.0274 5.29865 12.6511 5.34726 12.2467C5.3585 12.1197 5.20386 12.0441 5.11636 12.1355Z" fill="#FF7F00"/>
</svg>
