<svg width="20" height="20" viewBox="0 0 20 20" fill="none" xmlns="http://www.w3.org/2000/svg">
<path d="M10.7983 1.59998H6.79839C6.13564 1.59998 5.59839 2.13723 5.59839 2.79998C5.59839 3.46272 6.13564 3.99998 6.79839 3.99998H10.7983C11.4611 3.99998 11.9983 3.46272 11.9983 2.79998C11.9983 2.13723 11.4611 1.59998 10.7983 1.59998Z" stroke="#FF0000" stroke-width="1.2" stroke-linecap="round" stroke-linejoin="round"/>
<path d="M5.59839 12H8.34123M5.59839 8.79999H11.9983" stroke="#FF0000" stroke-width="1.2" stroke-linecap="round" stroke-linejoin="round"/>
<path d="M15.1984 11.1996L15.1985 7.58609C15.1985 5.32338 15.1985 4.19202 14.4955 3.48908C13.9825 2.97604 13.2412 2.83744 11.9985 2.79999M10.3984 17.5996H7.19844C4.9357 17.5996 3.80433 17.5996 3.10139 16.8966C2.39845 16.1937 2.39844 15.0623 2.39844 12.7996L2.39845 7.58614C2.39844 5.32339 2.39844 4.19202 3.10138 3.48908C3.61441 2.97604 4.35565 2.83744 5.59836 2.79999" stroke="#FF0000" stroke-width="1.2" stroke-linecap="round" stroke-linejoin="round"/>
<path d="M16.7985 13.6L14.7985 15.6M14.7985 15.6L12.7985 17.6M14.7985 15.6L16.7985 17.6M14.7985 15.6L12.7985 13.6" stroke="#FF0000" stroke-width="1.2" stroke-linecap="round" stroke-linejoin="round"/>
</svg>
