<svg width="20" height="20" viewBox="0 0 20 20" fill="none" xmlns="http://www.w3.org/2000/svg">
<path d="M11.5969 1.60016H7.59685C6.93411 1.60016 6.39685 2.13742 6.39685 2.80016C6.39685 3.4629 6.93411 4.00016 7.59685 4.00016H11.5969C12.2596 4.00016 12.7969 3.4629 12.7969 2.80016C12.7969 2.13742 12.2596 1.60016 11.5969 1.60016Z" stroke="#141B34" stroke-width="1.2" stroke-linecap="round" stroke-linejoin="round"/>
<path d="M6.39685 12.0002H9.13974M6.39685 8.80023H12.7969" stroke="#141B34" stroke-width="1.2" stroke-linecap="round" stroke-linejoin="round"/>
<path d="M12.7969 2.80017C14.0397 2.83763 14.7809 2.97623 15.2939 3.48927C15.9969 4.19221 15.9969 5.32356 15.9969 7.58627V12.7997C15.9969 15.0625 15.9969 16.1939 15.2939 16.8968C14.591 17.5997 13.4596 17.5997 11.1969 17.5997H7.9969C5.73416 17.5997 4.6028 17.5997 3.89985 16.8968C3.19691 16.1939 3.19691 15.0625 3.1969 12.7998L3.19692 7.58632C3.19691 5.32358 3.19691 4.1922 3.89985 3.48926C4.41288 2.97623 5.15412 2.83762 6.39682 2.80017" stroke="#141B34" stroke-width="1.2" stroke-linecap="round" stroke-linejoin="round"/>
</svg>
